<mxfile host="app.diagrams.net" agent="Mozilla/5.0 (Windows NT 10.0; Win64; x64) AppleWebKit/537.36 (KHTML, like Gecko) Chrome/131.0.0.0 Safari/537.36 Edg/131.0.0.0" version="26.0.4">
  <diagram name="Page-1" id="sc6EvYaapmi6d1F1lrHy">
    <mxGraphModel dx="1044" dy="558" grid="1" gridSize="10" guides="1" tooltips="1" connect="1" arrows="1" fold="1" page="1" pageScale="1" pageWidth="850" pageHeight="1100" math="0" shadow="0">
      <root>
        <mxCell id="0" />
        <mxCell id="1" parent="0" />
        <mxCell id="KpO2v8YEDrRKsGUVGcU0-2" value="Tìm kiếm" style="ellipse;whiteSpace=wrap;html=1;" vertex="1" parent="1">
          <mxGeometry x="531" y="220" width="140" height="70" as="geometry" />
        </mxCell>
        <mxCell id="KpO2v8YEDrRKsGUVGcU0-3" value="Tìm việc" style="ellipse;whiteSpace=wrap;html=1;" vertex="1" parent="1">
          <mxGeometry x="321" y="220" width="140" height="70" as="geometry" />
        </mxCell>
        <mxCell id="KpO2v8YEDrRKsGUVGcU0-6" value="Xem chi tiết bài đăng" style="ellipse;whiteSpace=wrap;html=1;" vertex="1" parent="1">
          <mxGeometry x="531" y="80" width="140" height="70" as="geometry" />
        </mxCell>
        <mxCell id="KpO2v8YEDrRKsGUVGcU0-7" value="&amp;lt;&amp;lt;include&amp;gt;&amp;gt;" style="edgeStyle=none;html=1;endArrow=open;verticalAlign=bottom;dashed=1;labelBackgroundColor=none;rounded=0;exitX=0;exitY=0.5;exitDx=0;exitDy=0;entryX=1;entryY=0.5;entryDx=0;entryDy=0;" edge="1" parent="1" source="KpO2v8YEDrRKsGUVGcU0-2" target="KpO2v8YEDrRKsGUVGcU0-3">
          <mxGeometry width="160" relative="1" as="geometry">
            <mxPoint x="481" y="475" as="sourcePoint" />
            <mxPoint x="391" y="220" as="targetPoint" />
          </mxGeometry>
        </mxCell>
        <mxCell id="KpO2v8YEDrRKsGUVGcU0-9" value="freelancer" style="shape=umlActor;html=1;verticalLabelPosition=bottom;verticalAlign=top;align=center;" vertex="1" parent="1">
          <mxGeometry x="200" y="225" width="30" height="60" as="geometry" />
        </mxCell>
        <mxCell id="KpO2v8YEDrRKsGUVGcU0-12" value="" style="edgeStyle=none;html=1;endArrow=block;endFill=0;endSize=12;verticalAlign=bottom;rounded=0;exitX=0.5;exitY=0.5;exitDx=0;exitDy=0;exitPerimeter=0;entryX=0;entryY=0.5;entryDx=0;entryDy=0;" edge="1" parent="1" source="KpO2v8YEDrRKsGUVGcU0-9" target="KpO2v8YEDrRKsGUVGcU0-3">
          <mxGeometry width="160" relative="1" as="geometry">
            <mxPoint x="226" y="275" as="sourcePoint" />
            <mxPoint x="331" y="280" as="targetPoint" />
          </mxGeometry>
        </mxCell>
        <mxCell id="KpO2v8YEDrRKsGUVGcU0-13" value="&amp;lt;&amp;lt;include&amp;gt;&amp;gt;" style="edgeStyle=none;html=1;endArrow=open;verticalAlign=bottom;dashed=1;labelBackgroundColor=none;rounded=0;exitX=0.5;exitY=0;exitDx=0;exitDy=0;entryX=0.5;entryY=1;entryDx=0;entryDy=0;" edge="1" parent="1" source="KpO2v8YEDrRKsGUVGcU0-2" target="KpO2v8YEDrRKsGUVGcU0-6">
          <mxGeometry width="160" relative="1" as="geometry">
            <mxPoint x="661" y="200" as="sourcePoint" />
            <mxPoint x="591" y="200" as="targetPoint" />
          </mxGeometry>
        </mxCell>
        <mxCell id="KpO2v8YEDrRKsGUVGcU0-14" value="Nộp CV" style="ellipse;whiteSpace=wrap;html=1;" vertex="1" parent="1">
          <mxGeometry x="711" y="170" width="140" height="70" as="geometry" />
        </mxCell>
        <mxCell id="KpO2v8YEDrRKsGUVGcU0-17" value="Ứng tuyển" style="ellipse;whiteSpace=wrap;html=1;" vertex="1" parent="1">
          <mxGeometry x="610" y="320" width="140" height="70" as="geometry" />
        </mxCell>
        <mxCell id="KpO2v8YEDrRKsGUVGcU0-21" value="&amp;lt;&amp;lt;extend&amp;gt;&amp;gt;" style="edgeStyle=none;html=1;startArrow=open;endArrow=none;startSize=12;verticalAlign=bottom;dashed=1;labelBackgroundColor=none;rounded=0;exitX=1;exitY=0.5;exitDx=0;exitDy=0;entryX=0.099;entryY=0.194;entryDx=0;entryDy=0;entryPerimeter=0;" edge="1" parent="1" source="KpO2v8YEDrRKsGUVGcU0-6" target="KpO2v8YEDrRKsGUVGcU0-14">
          <mxGeometry width="160" relative="1" as="geometry">
            <mxPoint x="570" y="360" as="sourcePoint" />
            <mxPoint x="730" y="360" as="targetPoint" />
          </mxGeometry>
        </mxCell>
        <mxCell id="KpO2v8YEDrRKsGUVGcU0-22" value="&amp;lt;&amp;lt;extend&amp;gt;&amp;gt;" style="edgeStyle=none;html=1;startArrow=open;endArrow=none;startSize=12;verticalAlign=bottom;dashed=1;labelBackgroundColor=none;rounded=0;entryX=0.5;entryY=0;entryDx=0;entryDy=0;exitX=0.5;exitY=1;exitDx=0;exitDy=0;" edge="1" parent="1" source="KpO2v8YEDrRKsGUVGcU0-14" target="KpO2v8YEDrRKsGUVGcU0-17">
          <mxGeometry width="160" relative="1" as="geometry">
            <mxPoint x="820" y="160" as="sourcePoint" />
            <mxPoint x="735" y="194" as="targetPoint" />
          </mxGeometry>
        </mxCell>
      </root>
    </mxGraphModel>
  </diagram>
</mxfile>
